<?xml version="1.0" encoding="UTF-8" standalone="no"?>
<!DOCTYPE svg PUBLIC "-//W3C//DTD SVG 1.1//EN"
 "http://www.w3.org/Graphics/SVG/1.1/DTD/svg11.dtd">
<!-- Generated by graphviz version 2.40.1 (20161225.0304)
 -->
<!-- Title: dependencies Pages: 1 -->
<svg width="504pt" height="211pt"
 viewBox="0.00 0.00 504.00 211.00" xmlns="http://www.w3.org/2000/svg" xmlns:xlink="http://www.w3.org/1999/xlink">
<g id="graph0" class="graph" transform="scale(1 1) rotate(0) translate(4 207)">
<title>dependencies</title>
<polygon fill="#ffffff" stroke="transparent" points="-4,4 -4,-207 500,-207 500,4 -4,4"/>
<text text-anchor="start" x="227.0091" y="-42.4" font-family="sans-serif" font-weight="bold" font-size="14.00" fill="#000000">Legend</text>
<polygon fill="#ffffb3" stroke="transparent" points="14,-10 14,-30 34,-30 34,-10 14,-10"/>
<text text-anchor="start" x="37.629" y="-15.4" font-family="sans-serif" font-size="14.00" fill="#000000"> &#160;Declarations</text>
<polygon fill="#8dd3c7" stroke="transparent" points="127,-10 127,-30 147,-30 147,-10 127,-10"/>
<text text-anchor="start" x="150.7251" y="-15.4" font-family="sans-serif" font-size="14.00" fill="#000000"> &#160;Module</text>
<polygon fill="#80b1d3" stroke="transparent" points="213,-10 213,-30 233,-30 233,-10 213,-10"/>
<text text-anchor="start" x="236.7812" y="-15.4" font-family="sans-serif" font-size="14.00" fill="#000000"> &#160;Bootstrap</text>
<polygon fill="#fdb462" stroke="transparent" points="310,-10 310,-30 330,-30 330,-10 310,-10"/>
<text text-anchor="start" x="333.6732" y="-15.4" font-family="sans-serif" font-size="14.00" fill="#000000"> &#160;Providers</text>
<polygon fill="#fb8072" stroke="transparent" points="406,-10 406,-30 426,-30 426,-10 406,-10"/>
<text text-anchor="start" x="429.7258" y="-15.4" font-family="sans-serif" font-size="14.00" fill="#000000"> &#160;Exports</text>
<g id="clust1" class="cluster">
<title>cluster_ChatHomeModule</title>
<polygon fill="none" stroke="#000000" stroke-dasharray="1,5" points="25,-70 25,-195 471,-195 471,-70 25,-70"/>
</g>
<g id="clust2" class="cluster">
<title>cluster_ChatHomeModule_declarations</title>
<polygon fill="none" stroke="#000000" points="305,-78 305,-130 463,-130 463,-78 305,-78"/>
</g>
<g id="clust4" class="cluster">
<title>cluster_ChatHomeModule_imports</title>
<polygon fill="none" stroke="#000000" points="33,-78 33,-130 297,-130 297,-78 33,-78"/>
</g>
<!-- ChatHomeComponent -->
<g id="node1" class="node">
<title>ChatHomeComponent</title>
<polygon fill="#ffffb3" stroke="#000000" points="454.986,-122 313.014,-122 313.014,-86 454.986,-86 454.986,-122"/>
<text text-anchor="middle" x="384" y="-99.8" font-family="Times,serif" font-size="14.00" fill="#000000">ChatHomeComponent</text>
</g>
<!-- ChatHomeModule -->
<g id="node2" class="node">
<title>ChatHomeModule</title>
<polygon fill="#8dd3c7" stroke="#000000" points="283.2036,-187 280.2036,-191 259.2036,-191 256.2036,-187 162.7964,-187 162.7964,-151 283.2036,-151 283.2036,-187"/>
<text text-anchor="middle" x="223" y="-164.8" font-family="Times,serif" font-size="14.00" fill="#000000">ChatHomeModule</text>
</g>
<!-- ChatHomeComponent&#45;&gt;ChatHomeModule -->
<g id="edge1" class="edge">
<title>ChatHomeComponent&#45;&gt;ChatHomeModule</title>
<path fill="none" stroke="#000000" d="M384,-122.1061C384,-141.3391 384,-169 384,-169 384,-169 293.4085,-169 293.4085,-169"/>
<polygon fill="#000000" stroke="#000000" points="293.4086,-165.5001 283.4085,-169 293.4085,-172.5001 293.4086,-165.5001"/>
</g>
<!-- ChatRoutingModule -->
<g id="node3" class="node">
<title>ChatRoutingModule</title>
<polygon fill="#8dd3c7" stroke="#000000" points="288.6094,-122 285.6094,-126 264.6094,-126 261.6094,-122 157.3906,-122 157.3906,-86 288.6094,-86 288.6094,-122"/>
<text text-anchor="middle" x="223" y="-99.8" font-family="Times,serif" font-size="14.00" fill="#000000">ChatRoutingModule</text>
</g>
<!-- ChatRoutingModule&#45;&gt;ChatHomeModule -->
<g id="edge2" class="edge">
<title>ChatRoutingModule&#45;&gt;ChatHomeModule</title>
<path fill="none" stroke="#000000" d="M223,-122.1061C223,-122.1061 223,-140.991 223,-140.991"/>
<polygon fill="#000000" stroke="#000000" points="219.5001,-140.9909 223,-150.991 226.5001,-140.991 219.5001,-140.9909"/>
</g>
<!-- SharedModule -->
<g id="node4" class="node">
<title>SharedModule</title>
<polygon fill="#8dd3c7" stroke="#000000" points="139.4231,-122 136.4231,-126 115.4231,-126 112.4231,-122 40.5769,-122 40.5769,-86 139.4231,-86 139.4231,-122"/>
<text text-anchor="middle" x="90" y="-99.8" font-family="Times,serif" font-size="14.00" fill="#000000">SharedModule</text>
</g>
<!-- SharedModule&#45;&gt;ChatHomeModule -->
<g id="edge3" class="edge">
<title>SharedModule&#45;&gt;ChatHomeModule</title>
<path fill="none" stroke="#000000" d="M90,-122.1061C90,-141.3391 90,-169 90,-169 90,-169 152.7263,-169 152.7263,-169"/>
<polygon fill="#000000" stroke="#000000" points="152.7263,-172.5001 162.7263,-169 152.7262,-165.5001 152.7263,-172.5001"/>
</g>
</g>
</svg>
