<?xml version="1.0" encoding="UTF-8" standalone="no"?>
<!DOCTYPE svg PUBLIC "-//W3C//DTD SVG 1.1//EN"
 "http://www.w3.org/Graphics/SVG/1.1/DTD/svg11.dtd">
<!-- Generated by graphviz version 2.40.1 (20161225.0304)
 -->
<!-- Title: dependencies Pages: 1 -->
<svg width="742pt" height="284pt"
 viewBox="0.00 0.00 742.00 284.00" xmlns="http://www.w3.org/2000/svg" xmlns:xlink="http://www.w3.org/1999/xlink">
<g id="graph0" class="graph" transform="scale(1 1) rotate(0) translate(4 280)">
<title>dependencies</title>
<polygon fill="#ffffff" stroke="transparent" points="-4,4 -4,-280 738,-280 738,4 -4,4"/>
<text text-anchor="start" x="346.0091" y="-42.4" font-family="sans-serif" font-weight="bold" font-size="14.00" fill="#000000">Legend</text>
<polygon fill="#ffffb3" stroke="transparent" points="133,-10 133,-30 153,-30 153,-10 133,-10"/>
<text text-anchor="start" x="156.629" y="-15.4" font-family="sans-serif" font-size="14.00" fill="#000000"> &#160;Declarations</text>
<polygon fill="#8dd3c7" stroke="transparent" points="246,-10 246,-30 266,-30 266,-10 246,-10"/>
<text text-anchor="start" x="269.7251" y="-15.4" font-family="sans-serif" font-size="14.00" fill="#000000"> &#160;Module</text>
<polygon fill="#80b1d3" stroke="transparent" points="332,-10 332,-30 352,-30 352,-10 332,-10"/>
<text text-anchor="start" x="355.7812" y="-15.4" font-family="sans-serif" font-size="14.00" fill="#000000"> &#160;Bootstrap</text>
<polygon fill="#fdb462" stroke="transparent" points="429,-10 429,-30 449,-30 449,-10 429,-10"/>
<text text-anchor="start" x="452.6732" y="-15.4" font-family="sans-serif" font-size="14.00" fill="#000000"> &#160;Providers</text>
<polygon fill="#fb8072" stroke="transparent" points="525,-10 525,-30 545,-30 545,-10 525,-10"/>
<text text-anchor="start" x="548.7258" y="-15.4" font-family="sans-serif" font-size="14.00" fill="#000000"> &#160;Exports</text>
<g id="clust1" class="cluster">
<title>cluster_SharedModule</title>
<polygon fill="none" stroke="#000000" stroke-dasharray="1,5" points="8,-70 8,-268 726,-268 726,-70 8,-70"/>
</g>
<g id="clust2" class="cluster">
<title>cluster_SharedModule_declarations</title>
<polygon fill="none" stroke="#000000" points="24,-78 24,-130 710,-130 710,-78 24,-78"/>
</g>
<g id="clust9" class="cluster">
<title>cluster_SharedModule_exports</title>
<polygon fill="none" stroke="#000000" points="16,-208 16,-260 718,-260 718,-208 16,-208"/>
</g>
<!-- ChatComponent -->
<g id="node1" class="node">
<title>ChatComponent</title>
<polygon fill="#ffffb3" stroke="#000000" points="701.7744,-122 594.2256,-122 594.2256,-86 701.7744,-86 701.7744,-122"/>
<text text-anchor="middle" x="648" y="-99.8" font-family="Times,serif" font-size="14.00" fill="#000000">ChatComponent</text>
</g>
<!-- SharedModule -->
<g id="node6" class="node">
<title>SharedModule</title>
<polygon fill="#8dd3c7" stroke="#000000" points="415.4231,-187 412.4231,-191 391.4231,-191 388.4231,-187 316.5769,-187 316.5769,-151 415.4231,-151 415.4231,-187"/>
<text text-anchor="middle" x="366" y="-164.8" font-family="Times,serif" font-size="14.00" fill="#000000">SharedModule</text>
</g>
<!-- ChatComponent&#45;&gt;SharedModule -->
<g id="edge1" class="edge">
<title>ChatComponent&#45;&gt;SharedModule</title>
<path fill="none" stroke="#000000" d="M667.379,-122.2667C667.379,-140.5552 667.379,-166 667.379,-166 667.379,-166 425.4291,-166 425.4291,-166"/>
<polygon fill="#000000" stroke="#000000" points="425.4292,-162.5001 415.4291,-166 425.4291,-169.5001 425.4292,-162.5001"/>
</g>
<!-- HeaderComponent -->
<g id="node2" class="node">
<title>HeaderComponent</title>
<polygon fill="#ffffb3" stroke="#000000" points="575.7437,-122 454.2563,-122 454.2563,-86 575.7437,-86 575.7437,-122"/>
<text text-anchor="middle" x="515" y="-99.8" font-family="Times,serif" font-size="14.00" fill="#000000">HeaderComponent</text>
</g>
<!-- HeaderComponent&#45;&gt;SharedModule -->
<g id="edge2" class="edge">
<title>HeaderComponent&#45;&gt;SharedModule</title>
<path fill="none" stroke="#000000" d="M535.7072,-122.0091C535.7072,-138.0494 535.7072,-159 535.7072,-159 535.7072,-159 425.5426,-159 425.5426,-159"/>
<polygon fill="#000000" stroke="#000000" points="425.5426,-155.5001 415.5426,-159 425.5425,-162.5001 425.5426,-155.5001"/>
</g>
<!-- MenuItemComponent -->
<g id="node3" class="node">
<title>MenuItemComponent</title>
<polygon fill="#ffffb3" stroke="#000000" points="435.6484,-122 296.3516,-122 296.3516,-86 435.6484,-86 435.6484,-122"/>
<text text-anchor="middle" x="366" y="-99.8" font-family="Times,serif" font-size="14.00" fill="#000000">MenuItemComponent</text>
</g>
<!-- MenuItemComponent&#45;&gt;SharedModule -->
<g id="edge3" class="edge">
<title>MenuItemComponent&#45;&gt;SharedModule</title>
<path fill="none" stroke="#000000" d="M366,-122.1061C366,-122.1061 366,-140.991 366,-140.991"/>
<polygon fill="#000000" stroke="#000000" points="362.5001,-140.9909 366,-150.991 369.5001,-140.991 362.5001,-140.9909"/>
</g>
<!-- PostComponent -->
<g id="node4" class="node">
<title>PostComponent</title>
<polygon fill="#ffffb3" stroke="#000000" points="277.9512,-122 172.0488,-122 172.0488,-86 277.9512,-86 277.9512,-122"/>
<text text-anchor="middle" x="225" y="-99.8" font-family="Times,serif" font-size="14.00" fill="#000000">PostComponent</text>
</g>
<!-- PostComponent&#45;&gt;SharedModule -->
<g id="edge4" class="edge">
<title>PostComponent&#45;&gt;SharedModule</title>
<path fill="none" stroke="#000000" d="M241.7417,-122.0091C241.7417,-138.0494 241.7417,-159 241.7417,-159 241.7417,-159 306.5328,-159 306.5328,-159"/>
<polygon fill="#000000" stroke="#000000" points="306.5328,-162.5001 316.5328,-159 306.5328,-155.5001 306.5328,-162.5001"/>
</g>
<!-- WidgetComponent -->
<g id="node5" class="node">
<title>WidgetComponent</title>
<polygon fill="#ffffb3" stroke="#000000" points="154.0436,-122 31.9564,-122 31.9564,-86 154.0436,-86 154.0436,-122"/>
<text text-anchor="middle" x="93" y="-99.8" font-family="Times,serif" font-size="14.00" fill="#000000">WidgetComponent</text>
</g>
<!-- WidgetComponent&#45;&gt;SharedModule -->
<g id="edge5" class="edge">
<title>WidgetComponent&#45;&gt;SharedModule</title>
<path fill="none" stroke="#000000" d="M110.5905,-122.2667C110.5905,-140.5552 110.5905,-166 110.5905,-166 110.5905,-166 306.7545,-166 306.7545,-166"/>
<polygon fill="#000000" stroke="#000000" points="306.7545,-169.5001 316.7545,-166 306.7544,-162.5001 306.7545,-169.5001"/>
</g>
<!-- ChatComponent  -->
<g id="node7" class="node">
<title>ChatComponent </title>
<polygon fill="#fb8072" stroke="#000000" points="709.7745,-252 598.2255,-252 598.2255,-216 709.7745,-216 709.7745,-252"/>
<text text-anchor="middle" x="654" y="-229.8" font-family="Times,serif" font-size="14.00" fill="#000000">ChatComponent </text>
</g>
<!-- SharedModule&#45;&gt;ChatComponent  -->
<g id="edge6" class="edge">
<title>SharedModule&#45;&gt;ChatComponent </title>
<path fill="none" stroke="#000000" stroke-dasharray="5,2" d="M415.2593,-173C492.3701,-173 632.871,-173 632.871,-173 632.871,-173 632.871,-205.698 632.871,-205.698"/>
<polygon fill="#000000" stroke="#000000" points="629.3711,-205.698 632.871,-215.698 636.3711,-205.698 629.3711,-205.698"/>
</g>
<!-- HeaderComponent  -->
<g id="node8" class="node">
<title>HeaderComponent </title>
<polygon fill="#fb8072" stroke="#000000" points="580.7436,-252 455.2564,-252 455.2564,-216 580.7436,-216 580.7436,-252"/>
<text text-anchor="middle" x="518" y="-229.8" font-family="Times,serif" font-size="14.00" fill="#000000">HeaderComponent </text>
</g>
<!-- SharedModule&#45;&gt;HeaderComponent  -->
<g id="edge7" class="edge">
<title>SharedModule&#45;&gt;HeaderComponent </title>
<path fill="none" stroke="#000000" stroke-dasharray="5,2" d="M415.3441,-180C451.9528,-180 495.5428,-180 495.5428,-180 495.5428,-180 495.5428,-205.7181 495.5428,-205.7181"/>
<polygon fill="#000000" stroke="#000000" points="492.0429,-205.718 495.5428,-215.7181 499.0429,-205.7181 492.0429,-205.718"/>
</g>
<!-- MenuItemComponent  -->
<g id="node9" class="node">
<title>MenuItemComponent </title>
<polygon fill="#fb8072" stroke="#000000" points="437.6481,-252 294.3519,-252 294.3519,-216 437.6481,-216 437.6481,-252"/>
<text text-anchor="middle" x="366" y="-229.8" font-family="Times,serif" font-size="14.00" fill="#000000">MenuItemComponent </text>
</g>
<!-- SharedModule&#45;&gt;MenuItemComponent  -->
<g id="edge8" class="edge">
<title>SharedModule&#45;&gt;MenuItemComponent </title>
<path fill="none" stroke="#000000" stroke-dasharray="5,2" d="M366,-187.1061C366,-187.1061 366,-205.991 366,-205.991"/>
<polygon fill="#000000" stroke="#000000" points="362.5001,-205.9909 366,-215.991 369.5001,-205.991 362.5001,-205.9909"/>
</g>
<!-- PostComponent  -->
<g id="node10" class="node">
<title>PostComponent </title>
<polygon fill="#fb8072" stroke="#000000" points="276.4502,-252 167.5498,-252 167.5498,-216 276.4502,-216 276.4502,-252"/>
<text text-anchor="middle" x="222" y="-229.8" font-family="Times,serif" font-size="14.00" fill="#000000">PostComponent </text>
</g>
<!-- SharedModule&#45;&gt;PostComponent  -->
<g id="edge9" class="edge">
<title>SharedModule&#45;&gt;PostComponent </title>
<path fill="none" stroke="#000000" stroke-dasharray="5,2" d="M316.5656,-180C269.8932,-180 207.0083,-180 207.0083,-180 207.0083,-180 207.0083,-205.7181 207.0083,-205.7181"/>
<polygon fill="#000000" stroke="#000000" points="203.5084,-205.718 207.0083,-215.7181 210.5084,-205.7181 203.5084,-205.718"/>
</g>
<!-- WidgetComponent  -->
<g id="node11" class="node">
<title>WidgetComponent </title>
<polygon fill="#fb8072" stroke="#000000" points="150.0428,-252 23.9572,-252 23.9572,-216 150.0428,-216 150.0428,-252"/>
<text text-anchor="middle" x="87" y="-229.8" font-family="Times,serif" font-size="14.00" fill="#000000">WidgetComponent </text>
</g>
<!-- SharedModule&#45;&gt;WidgetComponent  -->
<g id="edge10" class="edge">
<title>SharedModule&#45;&gt;WidgetComponent </title>
<path fill="none" stroke="#000000" stroke-dasharray="5,2" d="M316.6503,-173C232.7165,-173 71.1595,-173 71.1595,-173 71.1595,-173 71.1595,-205.698 71.1595,-205.698"/>
<polygon fill="#000000" stroke="#000000" points="67.6596,-205.698 71.1595,-215.698 74.6596,-205.698 67.6596,-205.698"/>
</g>
</g>
</svg>
